STARTFONT 2.1
COMMENT The X10 name for this font was "nil2"
FONT -misc-nil-medium-r-normal--2-20-75-75-c-10-windows-1251
SIZE 2 75 75
FONTBOUNDINGBOX 1 2 0 0
STARTPROPERTIES 23
FOUNDRY "misc"
FAMILY_NAME "nil"
WEIGHT_NAME "Medium"
SLANT "R"
SETWIDTH_NAME "Normal"
ADD_STYLE_NAME ""
PIXEL_SIZE 2
POINT_SIZE 20
RESOLUTION_X 75
RESOLUTION_Y 75
SPACING "C"
AVERAGE_WIDTH 10
CHARSET_REGISTRY "windows"
CHARSET_ENCODING "1251"
UNDERLINE_POSITION 1
DESTINATION 1
DEFAULT_CHAR 0
FONT_DESCENT 0
FONT_ASCENT 2
COPYRIGHT2 "Cyrillic, Euro and special glyphs copyright 2000 Dmitry Yu. Bolkhovityanov, bolkhov@inp.nsk.su"
SOURCEDATE "Sun May  7 22:16:38 2000"
PKGVERSION "1.1"
ASSEMBLER "cvtbdf.pl (Linux)"
ENDPROPERTIES
CHARS 265
STARTCHAR null
ENCODING 0
SWIDTH 1 0
DWIDTH 1 0
BBX 1 2 0 0
BITMAP
00
00
ENDCHAR
STARTCHAR ctrlA
ENCODING 1
SWIDTH 1 0
DWIDTH 1 0
BBX 1 2 0 0
BITMAP
80
80
ENDCHAR
STARTCHAR ctrlB
ENCODING 2
SWIDTH 1 0
DWIDTH 1 0
BBX 1 2 0 0
BITMAP
80
80
ENDCHAR
STARTCHAR ctrlC
ENCODING 3
SWIDTH 1 0
DWIDTH 1 0
BBX 1 2 0 0
BITMAP
80
80
ENDCHAR
STARTCHAR ctrlD
ENCODING 4
SWIDTH 1 0
DWIDTH 1 0
BBX 1 2 0 0
BITMAP
80
80
ENDCHAR
STARTCHAR ctrlE
ENCODING 5
SWIDTH 1 0
DWIDTH 1 0
BBX 1 2 0 0
BITMAP
80
80
ENDCHAR
STARTCHAR ctrlF
ENCODING 6
SWIDTH 1 0
DWIDTH 1 0
BBX 1 2 0 0
BITMAP
80
80
ENDCHAR
STARTCHAR ctrlG
ENCODING 7
SWIDTH 1 0
DWIDTH 1 0
BBX 1 2 0 0
BITMAP
80
00
ENDCHAR
STARTCHAR ctrlH
ENCODING 8
SWIDTH 1 0
DWIDTH 1 0
BBX 1 2 0 0
BITMAP
80
80
ENDCHAR
STARTCHAR ctrlI
ENCODING 9
SWIDTH 1 0
DWIDTH 1 0
BBX 1 2 0 0
BITMAP
80
80
ENDCHAR
STARTCHAR ctrlJ
ENCODING 10
SWIDTH 1 0
DWIDTH 1 0
BBX 1 2 0 0
BITMAP
80
80
ENDCHAR
STARTCHAR ldcornsqlr
ENCODING 11
SWIDTH 1 0
DWIDTH 1 0
BBX 1 2 0 0
BITMAP
80
00
ENDCHAR
STARTCHAR ldcornsqur
ENCODING 12
SWIDTH 1 0
DWIDTH 1 0
BBX 1 2 0 0
BITMAP
80
80
ENDCHAR
STARTCHAR ldcornsqul
ENCODING 13
SWIDTH 1 0
DWIDTH 1 0
BBX 1 2 0 0
BITMAP
80
80
ENDCHAR
STARTCHAR ldcornsqll
ENCODING 14
SWIDTH 1 0
DWIDTH 1 0
BBX 1 2 0 0
BITMAP
80
00
ENDCHAR
STARTCHAR ldcross
ENCODING 15
SWIDTH 1 0
DWIDTH 1 0
BBX 1 2 0 0
BITMAP
80
80
ENDCHAR
STARTCHAR ctrlP
ENCODING 16
SWIDTH 1 0
DWIDTH 1 0
BBX 1 2 0 0
BITMAP
80
00
ENDCHAR
STARTCHAR ctrlQ
ENCODING 17
SWIDTH 1 0
DWIDTH 1 0
BBX 1 2 0 0
BITMAP
80
00
ENDCHAR
STARTCHAR ldhorizontal
ENCODING 18
SWIDTH 1 0
DWIDTH 1 0
BBX 1 2 0 0
BITMAP
80
00
ENDCHAR
STARTCHAR ctrlS
ENCODING 19
SWIDTH 1 0
DWIDTH 1 0
BBX 1 2 0 0
BITMAP
00
80
ENDCHAR
STARTCHAR ctrlT
ENCODING 20
SWIDTH 1 0
DWIDTH 1 0
BBX 1 2 0 0
BITMAP
00
80
ENDCHAR
STARTCHAR ldteelft
ENCODING 21
SWIDTH 1 0
DWIDTH 1 0
BBX 1 2 0 0
BITMAP
80
80
ENDCHAR
STARTCHAR ldteert
ENCODING 22
SWIDTH 1 0
DWIDTH 1 0
BBX 1 2 0 0
BITMAP
80
80
ENDCHAR
STARTCHAR ldteebt
ENCODING 23
SWIDTH 1 0
DWIDTH 1 0
BBX 1 2 0 0
BITMAP
80
00
ENDCHAR
STARTCHAR ldteetp
ENCODING 24
SWIDTH 1 0
DWIDTH 1 0
BBX 1 2 0 0
BITMAP
80
80
ENDCHAR
STARTCHAR ldvertical
ENCODING 25
SWIDTH 1 0
DWIDTH 1 0
BBX 1 2 0 0
BITMAP
80
80
ENDCHAR
STARTCHAR ctrlZ
ENCODING 26
SWIDTH 1 0
DWIDTH 1 0
BBX 1 2 0 0
BITMAP
80
80
ENDCHAR
STARTCHAR ctrlBRL
ENCODING 27
SWIDTH 1 0
DWIDTH 1 0
BBX 1 2 0 0
BITMAP
80
80
ENDCHAR
STARTCHAR ctrlBSLASH
ENCODING 28
SWIDTH 1 0
DWIDTH 1 0
BBX 1 2 0 0
BITMAP
00
80
ENDCHAR
STARTCHAR ctrlBRR
ENCODING 29
SWIDTH 1 0
DWIDTH 1 0
BBX 1 2 0 0
BITMAP
00
80
ENDCHAR
STARTCHAR ctrlCARET
ENCODING 30
SWIDTH 1 0
DWIDTH 1 0
BBX 1 2 0 0
BITMAP
80
80
ENDCHAR
STARTCHAR ctrlUND
ENCODING 31
SWIDTH 1 0
DWIDTH 1 0
BBX 1 2 0 0
BITMAP
00
80
ENDCHAR
STARTCHAR space
ENCODING 32
SWIDTH 1 0
DWIDTH 1 0
BBX 1 2 0 0
BITMAP
00
00
ENDCHAR
STARTCHAR exclam
ENCODING 33
SWIDTH 1 0
DWIDTH 1 0
BBX 1 2 0 0
BITMAP
80
80
ENDCHAR
STARTCHAR quotedbl
ENCODING 34
SWIDTH 1 0
DWIDTH 1 0
BBX 1 2 0 0
BITMAP
80
00
ENDCHAR
STARTCHAR numbersign
ENCODING 35
SWIDTH 1 0
DWIDTH 1 0
BBX 1 2 0 0
BITMAP
80
80
ENDCHAR
STARTCHAR dollar
ENCODING 36
SWIDTH 1 0
DWIDTH 1 0
BBX 1 2 0 0
BITMAP
80
80
ENDCHAR
STARTCHAR percent
ENCODING 37
SWIDTH 1 0
DWIDTH 1 0
BBX 1 2 0 0
BITMAP
80
80
ENDCHAR
STARTCHAR ampersand
ENCODING 38
SWIDTH 1 0
DWIDTH 1 0
BBX 1 2 0 0
BITMAP
80
80
ENDCHAR
STARTCHAR quotesingle
ENCODING 39
SWIDTH 1 0
DWIDTH 1 0
BBX 1 2 0 0
BITMAP
80
00
ENDCHAR
STARTCHAR parenleft
ENCODING 40
SWIDTH 1 0
DWIDTH 1 0
BBX 1 2 0 0
BITMAP
80
80
ENDCHAR
STARTCHAR parenright
ENCODING 41
SWIDTH 1 0
DWIDTH 1 0
BBX 1 2 0 0
BITMAP
80
80
ENDCHAR
STARTCHAR asterisk
ENCODING 42
SWIDTH 1 0
DWIDTH 1 0
BBX 1 2 0 0
BITMAP
00
80
ENDCHAR
STARTCHAR plus
ENCODING 43
SWIDTH 1 0
DWIDTH 1 0
BBX 1 2 0 0
BITMAP
00
80
ENDCHAR
STARTCHAR comma
ENCODING 44
SWIDTH 1 0
DWIDTH 1 0
BBX 1 2 0 0
BITMAP
00
80
ENDCHAR
STARTCHAR minus
ENCODING 45
SWIDTH 1 0
DWIDTH 1 0
BBX 1 2 0 0
BITMAP
00
80
ENDCHAR
STARTCHAR period
ENCODING 46
SWIDTH 1 0
DWIDTH 1 0
BBX 1 2 0 0
BITMAP
00
80
ENDCHAR
STARTCHAR slash
ENCODING 47
SWIDTH 1 0
DWIDTH 1 0
BBX 1 2 0 0
BITMAP
80
80
ENDCHAR
STARTCHAR zero
ENCODING 48
SWIDTH 1 0
DWIDTH 1 0
BBX 1 2 0 0
BITMAP
80
80
ENDCHAR
STARTCHAR one
ENCODING 49
SWIDTH 1 0
DWIDTH 1 0
BBX 1 2 0 0
BITMAP
80
80
ENDCHAR
STARTCHAR two
ENCODING 50
SWIDTH 1 0
DWIDTH 1 0
BBX 1 2 0 0
BITMAP
80
80
ENDCHAR
STARTCHAR three
ENCODING 51
SWIDTH 1 0
DWIDTH 1 0
BBX 1 2 0 0
BITMAP
80
80
ENDCHAR
STARTCHAR four
ENCODING 52
SWIDTH 1 0
DWIDTH 1 0
BBX 1 2 0 0
BITMAP
80
80
ENDCHAR
STARTCHAR five
ENCODING 53
SWIDTH 1 0
DWIDTH 1 0
BBX 1 2 0 0
BITMAP
80
80
ENDCHAR
STARTCHAR six
ENCODING 54
SWIDTH 1 0
DWIDTH 1 0
BBX 1 2 0 0
BITMAP
80
80
ENDCHAR
STARTCHAR seven
ENCODING 55
SWIDTH 1 0
DWIDTH 1 0
BBX 1 2 0 0
BITMAP
80
80
ENDCHAR
STARTCHAR eight
ENCODING 56
SWIDTH 1 0
DWIDTH 1 0
BBX 1 2 0 0
BITMAP
80
80
ENDCHAR
STARTCHAR nine
ENCODING 57
SWIDTH 1 0
DWIDTH 1 0
BBX 1 2 0 0
BITMAP
80
80
ENDCHAR
STARTCHAR colon
ENCODING 58
SWIDTH 1 0
DWIDTH 1 0
BBX 1 2 0 0
BITMAP
80
80
ENDCHAR
STARTCHAR semicolon
ENCODING 59
SWIDTH 1 0
DWIDTH 1 0
BBX 1 2 0 0
BITMAP
80
80
ENDCHAR
STARTCHAR less
ENCODING 60
SWIDTH 1 0
DWIDTH 1 0
BBX 1 2 0 0
BITMAP
80
80
ENDCHAR
STARTCHAR equal
ENCODING 61
SWIDTH 1 0
DWIDTH 1 0
BBX 1 2 0 0
BITMAP
80
80
ENDCHAR
STARTCHAR greater
ENCODING 62
SWIDTH 1 0
DWIDTH 1 0
BBX 1 2 0 0
BITMAP
80
80
ENDCHAR
STARTCHAR question
ENCODING 63
SWIDTH 1 0
DWIDTH 1 0
BBX 1 2 0 0
BITMAP
80
80
ENDCHAR
STARTCHAR at
ENCODING 64
SWIDTH 1 0
DWIDTH 1 0
BBX 1 2 0 0
BITMAP
80
80
ENDCHAR
STARTCHAR A
ENCODING 65
SWIDTH 1 0
DWIDTH 1 0
BBX 1 2 0 0
BITMAP
80
80
ENDCHAR
STARTCHAR B
ENCODING 66
SWIDTH 1 0
DWIDTH 1 0
BBX 1 2 0 0
BITMAP
80
80
ENDCHAR
STARTCHAR C
ENCODING 67
SWIDTH 1 0
DWIDTH 1 0
BBX 1 2 0 0
BITMAP
80
80
ENDCHAR
STARTCHAR D
ENCODING 68
SWIDTH 1 0
DWIDTH 1 0
BBX 1 2 0 0
BITMAP
80
80
ENDCHAR
STARTCHAR E
ENCODING 69
SWIDTH 1 0
DWIDTH 1 0
BBX 1 2 0 0
BITMAP
80
80
ENDCHAR
STARTCHAR F
ENCODING 70
SWIDTH 1 0
DWIDTH 1 0
BBX 1 2 0 0
BITMAP
80
80
ENDCHAR
STARTCHAR G
ENCODING 71
SWIDTH 1 0
DWIDTH 1 0
BBX 1 2 0 0
BITMAP
80
80
ENDCHAR
STARTCHAR H
ENCODING 72
SWIDTH 1 0
DWIDTH 1 0
BBX 1 2 0 0
BITMAP
80
80
ENDCHAR
STARTCHAR I
ENCODING 73
SWIDTH 1 0
DWIDTH 1 0
BBX 1 2 0 0
BITMAP
80
80
ENDCHAR
STARTCHAR J
ENCODING 74
SWIDTH 1 0
DWIDTH 1 0
BBX 1 2 0 0
BITMAP
80
80
ENDCHAR
STARTCHAR K
ENCODING 75
SWIDTH 1 0
DWIDTH 1 0
BBX 1 2 0 0
BITMAP
80
80
ENDCHAR
STARTCHAR L
ENCODING 76
SWIDTH 1 0
DWIDTH 1 0
BBX 1 2 0 0
BITMAP
80
80
ENDCHAR
STARTCHAR M
ENCODING 77
SWIDTH 1 0
DWIDTH 1 0
BBX 1 2 0 0
BITMAP
80
80
ENDCHAR
STARTCHAR N
ENCODING 78
SWIDTH 1 0
DWIDTH 1 0
BBX 1 2 0 0
BITMAP
80
80
ENDCHAR
STARTCHAR O
ENCODING 79
SWIDTH 1 0
DWIDTH 1 0
BBX 1 2 0 0
BITMAP
80
80
ENDCHAR
STARTCHAR P
ENCODING 80
SWIDTH 1 0
DWIDTH 1 0
BBX 1 2 0 0
BITMAP
80
80
ENDCHAR
STARTCHAR Q
ENCODING 81
SWIDTH 1 0
DWIDTH 1 0
BBX 1 2 0 0
BITMAP
80
80
ENDCHAR
STARTCHAR R
ENCODING 82
SWIDTH 1 0
DWIDTH 1 0
BBX 1 2 0 0
BITMAP
80
80
ENDCHAR
STARTCHAR S
ENCODING 83
SWIDTH 1 0
DWIDTH 1 0
BBX 1 2 0 0
BITMAP
80
80
ENDCHAR
STARTCHAR T
ENCODING 84
SWIDTH 1 0
DWIDTH 1 0
BBX 1 2 0 0
BITMAP
80
80
ENDCHAR
STARTCHAR U
ENCODING 85
SWIDTH 1 0
DWIDTH 1 0
BBX 1 2 0 0
BITMAP
80
80
ENDCHAR
STARTCHAR V
ENCODING 86
SWIDTH 1 0
DWIDTH 1 0
BBX 1 2 0 0
BITMAP
80
80
ENDCHAR
STARTCHAR W
ENCODING 87
SWIDTH 1 0
DWIDTH 1 0
BBX 1 2 0 0
BITMAP
80
80
ENDCHAR
STARTCHAR X
ENCODING 88
SWIDTH 1 0
DWIDTH 1 0
BBX 1 2 0 0
BITMAP
80
80
ENDCHAR
STARTCHAR Y
ENCODING 89
SWIDTH 1 0
DWIDTH 1 0
BBX 1 2 0 0
BITMAP
80
80
ENDCHAR
STARTCHAR Z
ENCODING 90
SWIDTH 1 0
DWIDTH 1 0
BBX 1 2 0 0
BITMAP
80
80
ENDCHAR
STARTCHAR bracketleft
ENCODING 91
SWIDTH 1 0
DWIDTH 1 0
BBX 1 2 0 0
BITMAP
80
80
ENDCHAR
STARTCHAR backslash
ENCODING 92
SWIDTH 1 0
DWIDTH 1 0
BBX 1 2 0 0
BITMAP
80
80
ENDCHAR
STARTCHAR bracketright
ENCODING 93
SWIDTH 1 0
DWIDTH 1 0
BBX 1 2 0 0
BITMAP
80
80
ENDCHAR
STARTCHAR asciicircum
ENCODING 94
SWIDTH 1 0
DWIDTH 1 0
BBX 1 2 0 0
BITMAP
80
00
ENDCHAR
STARTCHAR underscore
ENCODING 95
SWIDTH 1 0
DWIDTH 1 0
BBX 1 2 0 0
BITMAP
00
80
ENDCHAR
STARTCHAR grave
ENCODING 96
SWIDTH 1 0
DWIDTH 1 0
BBX 1 2 0 0
BITMAP
80
00
ENDCHAR
STARTCHAR a
ENCODING 97
SWIDTH 1 0
DWIDTH 1 0
BBX 1 2 0 0
BITMAP
00
80
ENDCHAR
STARTCHAR b
ENCODING 98
SWIDTH 1 0
DWIDTH 1 0
BBX 1 2 0 0
BITMAP
00
80
ENDCHAR
STARTCHAR c
ENCODING 99
SWIDTH 1 0
DWIDTH 1 0
BBX 1 2 0 0
BITMAP
00
80
ENDCHAR
STARTCHAR d
ENCODING 100
SWIDTH 1 0
DWIDTH 1 0
BBX 1 2 0 0
BITMAP
00
80
ENDCHAR
STARTCHAR e
ENCODING 101
SWIDTH 1 0
DWIDTH 1 0
BBX 1 2 0 0
BITMAP
00
80
ENDCHAR
STARTCHAR f
ENCODING 102
SWIDTH 1 0
DWIDTH 1 0
BBX 1 2 0 0
BITMAP
00
80
ENDCHAR
STARTCHAR g
ENCODING 103
SWIDTH 1 0
DWIDTH 1 0
BBX 1 2 0 0
BITMAP
00
80
ENDCHAR
STARTCHAR h
ENCODING 104
SWIDTH 1 0
DWIDTH 1 0
BBX 1 2 0 0
BITMAP
00
80
ENDCHAR
STARTCHAR i
ENCODING 105
SWIDTH 1 0
DWIDTH 1 0
BBX 1 2 0 0
BITMAP
00
80
ENDCHAR
STARTCHAR j
ENCODING 106
SWIDTH 1 0
DWIDTH 1 0
BBX 1 2 0 0
BITMAP
00
80
ENDCHAR
STARTCHAR k
ENCODING 107
SWIDTH 1 0
DWIDTH 1 0
BBX 1 2 0 0
BITMAP
00
80
ENDCHAR
STARTCHAR l
ENCODING 108
SWIDTH 1 0
DWIDTH 1 0
BBX 1 2 0 0
BITMAP
00
80
ENDCHAR
STARTCHAR m
ENCODING 109
SWIDTH 1 0
DWIDTH 1 0
BBX 1 2 0 0
BITMAP
00
80
ENDCHAR
STARTCHAR n
ENCODING 110
SWIDTH 1 0
DWIDTH 1 0
BBX 1 2 0 0
BITMAP
00
80
ENDCHAR
STARTCHAR o
ENCODING 111
SWIDTH 1 0
DWIDTH 1 0
BBX 1 2 0 0
BITMAP
00
80
ENDCHAR
STARTCHAR p
ENCODING 112
SWIDTH 1 0
DWIDTH 1 0
BBX 1 2 0 0
BITMAP
00
80
ENDCHAR
STARTCHAR q
ENCODING 113
SWIDTH 1 0
DWIDTH 1 0
BBX 1 2 0 0
BITMAP
00
80
ENDCHAR
STARTCHAR r
ENCODING 114
SWIDTH 1 0
DWIDTH 1 0
BBX 1 2 0 0
BITMAP
00
80
ENDCHAR
STARTCHAR s
ENCODING 115
SWIDTH 1 0
DWIDTH 1 0
BBX 1 2 0 0
BITMAP
00
80
ENDCHAR
STARTCHAR t
ENCODING 116
SWIDTH 1 0
DWIDTH 1 0
BBX 1 2 0 0
BITMAP
00
80
ENDCHAR
STARTCHAR u
ENCODING 117
SWIDTH 1 0
DWIDTH 1 0
BBX 1 2 0 0
BITMAP
00
80
ENDCHAR
STARTCHAR v
ENCODING 118
SWIDTH 1 0
DWIDTH 1 0
BBX 1 2 0 0
BITMAP
00
80
ENDCHAR
STARTCHAR w
ENCODING 119
SWIDTH 1 0
DWIDTH 1 0
BBX 1 2 0 0
BITMAP
00
80
ENDCHAR
STARTCHAR x
ENCODING 120
SWIDTH 1 0
DWIDTH 1 0
BBX 1 2 0 0
BITMAP
00
80
ENDCHAR
STARTCHAR y
ENCODING 121
SWIDTH 1 0
DWIDTH 1 0
BBX 1 2 0 0
BITMAP
00
80
ENDCHAR
STARTCHAR z
ENCODING 122
SWIDTH 1 0
DWIDTH 1 0
BBX 1 2 0 0
BITMAP
00
80
ENDCHAR
STARTCHAR braceleft
ENCODING 123
SWIDTH 1 0
DWIDTH 1 0
BBX 1 2 0 0
BITMAP
80
80
ENDCHAR
STARTCHAR bar
ENCODING 124
SWIDTH 1 0
DWIDTH 1 0
BBX 1 2 0 0
BITMAP
80
80
ENDCHAR
STARTCHAR braceright
ENCODING 125
SWIDTH 1 0
DWIDTH 1 0
BBX 1 2 0 0
BITMAP
80
80
ENDCHAR
STARTCHAR asciitilde
ENCODING 126
SWIDTH 1 0
DWIDTH 1 0
BBX 1 2 0 0
BITMAP
80
00
ENDCHAR
STARTCHAR delete
ENCODING 127
SWIDTH 1 0
DWIDTH 1 0
BBX 1 2 0 0
BITMAP
00
00
ENDCHAR
STARTCHAR afii10051
ENCODING 128
SWIDTH 1 0
DWIDTH 1 0
BBX 1 2 0 0
BITMAP
80
80
ENDCHAR
STARTCHAR afii10052
ENCODING 129
SWIDTH 1 0
DWIDTH 1 0
BBX 1 2 0 0
BITMAP
80
80
ENDCHAR
STARTCHAR quotesinglbase
ENCODING 130
SWIDTH 1 0
DWIDTH 1 0
BBX 1 2 0 0
BITMAP
80
00
ENDCHAR
STARTCHAR afii10100
ENCODING 131
SWIDTH 1 0
DWIDTH 1 0
BBX 1 2 0 0
BITMAP
00
80
ENDCHAR
STARTCHAR quotedblbase
ENCODING 132
SWIDTH 1 0
DWIDTH 1 0
BBX 1 2 0 0
BITMAP
80
00
ENDCHAR
STARTCHAR ellipsis
ENCODING 133
SWIDTH 1 0
DWIDTH 1 0
BBX 1 2 0 0
BITMAP
00
80
ENDCHAR
STARTCHAR dagger
ENCODING 134
SWIDTH 1 0
DWIDTH 1 0
BBX 1 2 0 0
BITMAP
80
80
ENDCHAR
STARTCHAR daggerdbl
ENCODING 135
SWIDTH 1 0
DWIDTH 1 0
BBX 1 2 0 0
BITMAP
80
80
ENDCHAR
STARTCHAR Euro
ENCODING 136
SWIDTH 1 0
DWIDTH 1 0
BBX 1 2 0 0
BITMAP
80
80
ENDCHAR
STARTCHAR perthousand
ENCODING 137
SWIDTH 1 0
DWIDTH 1 0
BBX 1 2 0 0
BITMAP
80
80
ENDCHAR
STARTCHAR afii10058
ENCODING 138
SWIDTH 1 0
DWIDTH 1 0
BBX 1 2 0 0
BITMAP
80
80
ENDCHAR
STARTCHAR guilsinglleft
ENCODING 139
SWIDTH 1 0
DWIDTH 1 0
BBX 1 2 0 0
BITMAP
80
80
ENDCHAR
STARTCHAR afii10059
ENCODING 140
SWIDTH 1 0
DWIDTH 1 0
BBX 1 2 0 0
BITMAP
80
80
ENDCHAR
STARTCHAR afii10061
ENCODING 141
SWIDTH 1 0
DWIDTH 1 0
BBX 1 2 0 0
BITMAP
80
80
ENDCHAR
STARTCHAR afii10060
ENCODING 142
SWIDTH 1 0
DWIDTH 1 0
BBX 1 2 0 0
BITMAP
80
80
ENDCHAR
STARTCHAR afii10145
ENCODING 143
SWIDTH 1 0
DWIDTH 1 0
BBX 1 2 0 0
BITMAP
80
80
ENDCHAR
STARTCHAR afii10099
ENCODING 144
SWIDTH 1 0
DWIDTH 1 0
BBX 1 2 0 0
BITMAP
00
80
ENDCHAR
STARTCHAR quoteleft
ENCODING 145
SWIDTH 1 0
DWIDTH 1 0
BBX 1 2 0 0
BITMAP
80
00
ENDCHAR
STARTCHAR quoteright
ENCODING 146
SWIDTH 1 0
DWIDTH 1 0
BBX 1 2 0 0
BITMAP
80
00
ENDCHAR
STARTCHAR quotedblleft
ENCODING 147
SWIDTH 1 0
DWIDTH 1 0
BBX 1 2 0 0
BITMAP
80
00
ENDCHAR
STARTCHAR quotedblright
ENCODING 148
SWIDTH 1 0
DWIDTH 1 0
BBX 1 2 0 0
BITMAP
80
00
ENDCHAR
STARTCHAR bullet
ENCODING 149
SWIDTH 1 0
DWIDTH 1 0
BBX 1 2 0 0
BITMAP
00
80
ENDCHAR
STARTCHAR endash
ENCODING 150
SWIDTH 1 0
DWIDTH 1 0
BBX 1 2 0 0
BITMAP
00
80
ENDCHAR
STARTCHAR emdash
ENCODING 151
SWIDTH 1 0
DWIDTH 1 0
BBX 1 2 0 0
BITMAP
00
80
ENDCHAR
STARTCHAR trademark
ENCODING 153
SWIDTH 1 0
DWIDTH 1 0
BBX 1 2 0 0
BITMAP
80
00
ENDCHAR
STARTCHAR afii10106
ENCODING 154
SWIDTH 1 0
DWIDTH 1 0
BBX 1 2 0 0
BITMAP
00
80
ENDCHAR
STARTCHAR guilsinglright
ENCODING 155
SWIDTH 1 0
DWIDTH 1 0
BBX 1 2 0 0
BITMAP
80
80
ENDCHAR
STARTCHAR afii10107
ENCODING 156
SWIDTH 1 0
DWIDTH 1 0
BBX 1 2 0 0
BITMAP
00
80
ENDCHAR
STARTCHAR afii10109
ENCODING 157
SWIDTH 1 0
DWIDTH 1 0
BBX 1 2 0 0
BITMAP
00
80
ENDCHAR
STARTCHAR afii10108
ENCODING 158
SWIDTH 1 0
DWIDTH 1 0
BBX 1 2 0 0
BITMAP
00
80
ENDCHAR
STARTCHAR afii10193
ENCODING 159
SWIDTH 1 0
DWIDTH 1 0
BBX 1 2 0 0
BITMAP
00
80
ENDCHAR
STARTCHAR space
ENCODING 160
SWIDTH 1 0
DWIDTH 1 0
BBX 1 2 0 0
BITMAP
00
00
ENDCHAR
STARTCHAR afii10062
ENCODING 161
SWIDTH 1 0
DWIDTH 1 0
BBX 1 2 0 0
BITMAP
80
80
ENDCHAR
STARTCHAR afii10110
ENCODING 162
SWIDTH 1 0
DWIDTH 1 0
BBX 1 2 0 0
BITMAP
00
80
ENDCHAR
STARTCHAR afii10057
ENCODING 163
SWIDTH 1 0
DWIDTH 1 0
BBX 1 2 0 0
BITMAP
80
80
ENDCHAR
STARTCHAR currency
ENCODING 164
SWIDTH 1 0
DWIDTH 1 0
BBX 1 2 0 0
BITMAP
80
80
ENDCHAR
STARTCHAR afii10050
ENCODING 165
SWIDTH 1 0
DWIDTH 1 0
BBX 1 2 0 0
BITMAP
80
80
ENDCHAR
STARTCHAR brokenbar
ENCODING 166
SWIDTH 1 0
DWIDTH 1 0
BBX 1 2 0 0
BITMAP
80
80
ENDCHAR
STARTCHAR section
ENCODING 167
SWIDTH 1 0
DWIDTH 1 0
BBX 1 2 0 0
BITMAP
80
00
ENDCHAR
STARTCHAR afii10023
ENCODING 168
SWIDTH 1 0
DWIDTH 1 0
BBX 1 2 0 0
BITMAP
80
80
ENDCHAR
STARTCHAR copyright
ENCODING 169
SWIDTH 1 0
DWIDTH 1 0
BBX 1 2 0 0
BITMAP
80
80
ENDCHAR
STARTCHAR afii10053
ENCODING 170
SWIDTH 1 0
DWIDTH 1 0
BBX 1 2 0 0
BITMAP
80
80
ENDCHAR
STARTCHAR guillemotleft
ENCODING 171
SWIDTH 1 0
DWIDTH 1 0
BBX 1 2 0 0
BITMAP
80
80
ENDCHAR
STARTCHAR logicalnot
ENCODING 172
SWIDTH 1 0
DWIDTH 1 0
BBX 1 2 0 0
BITMAP
00
80
ENDCHAR
STARTCHAR hyphen
ENCODING 173
SWIDTH 1 0
DWIDTH 1 0
BBX 1 2 0 0
BITMAP
00
80
ENDCHAR
STARTCHAR registered
ENCODING 174
SWIDTH 1 0
DWIDTH 1 0
BBX 1 2 0 0
BITMAP
80
80
ENDCHAR
STARTCHAR afii10056
ENCODING 175
SWIDTH 1 0
DWIDTH 1 0
BBX 1 2 0 0
BITMAP
80
80
ENDCHAR
STARTCHAR degree
ENCODING 176
SWIDTH 1 0
DWIDTH 1 0
BBX 1 2 0 0
BITMAP
80
00
ENDCHAR
STARTCHAR plusminus
ENCODING 177
SWIDTH 1 0
DWIDTH 1 0
BBX 1 2 0 0
BITMAP
80
80
ENDCHAR
STARTCHAR afii10055
ENCODING 178
SWIDTH 1 0
DWIDTH 1 0
BBX 1 2 0 0
BITMAP
80
80
ENDCHAR
STARTCHAR afii10103
ENCODING 179
SWIDTH 1 0
DWIDTH 1 0
BBX 1 2 0 0
BITMAP
00
80
ENDCHAR
STARTCHAR afii10098
ENCODING 180
SWIDTH 1 0
DWIDTH 1 0
BBX 1 2 0 0
BITMAP
00
80
ENDCHAR
STARTCHAR mu
ENCODING 181
SWIDTH 1 0
DWIDTH 1 0
BBX 1 2 0 0
BITMAP
00
80
ENDCHAR
STARTCHAR paragraph
ENCODING 182
SWIDTH 1 0
DWIDTH 1 0
BBX 1 2 0 0
BITMAP
80
80
ENDCHAR
STARTCHAR periodcentered
ENCODING 183
SWIDTH 1 0
DWIDTH 1 0
BBX 1 2 0 0
BITMAP
00
80
ENDCHAR
STARTCHAR afii10071
ENCODING 184
SWIDTH 1 0
DWIDTH 1 0
BBX 1 2 0 0
BITMAP
00
80
ENDCHAR
STARTCHAR afii61352
ENCODING 185
SWIDTH 1 0
DWIDTH 1 0
BBX 1 2 0 0
BITMAP
80
80
ENDCHAR
STARTCHAR afii10101
ENCODING 186
SWIDTH 1 0
DWIDTH 1 0
BBX 1 2 0 0
BITMAP
00
80
ENDCHAR
STARTCHAR guillemotright
ENCODING 187
SWIDTH 1 0
DWIDTH 1 0
BBX 1 2 0 0
BITMAP
80
80
ENDCHAR
STARTCHAR afii10105
ENCODING 188
SWIDTH 1 0
DWIDTH 1 0
BBX 1 2 0 0
BITMAP
00
80
ENDCHAR
STARTCHAR afii10054
ENCODING 189
SWIDTH 1 0
DWIDTH 1 0
BBX 1 2 0 0
BITMAP
80
80
ENDCHAR
STARTCHAR afii10102
ENCODING 190
SWIDTH 1 0
DWIDTH 1 0
BBX 1 2 0 0
BITMAP
00
80
ENDCHAR
STARTCHAR afii10104
ENCODING 191
SWIDTH 1 0
DWIDTH 1 0
BBX 1 2 0 0
BITMAP
00
80
ENDCHAR
STARTCHAR afii10017
ENCODING 192
SWIDTH 1 0
DWIDTH 1 0
BBX 1 2 0 0
BITMAP
80
80
ENDCHAR
STARTCHAR afii10018
ENCODING 193
SWIDTH 1 0
DWIDTH 1 0
BBX 1 2 0 0
BITMAP
80
80
ENDCHAR
STARTCHAR afii10019
ENCODING 194
SWIDTH 1 0
DWIDTH 1 0
BBX 1 2 0 0
BITMAP
80
80
ENDCHAR
STARTCHAR afii10020
ENCODING 195
SWIDTH 1 0
DWIDTH 1 0
BBX 1 2 0 0
BITMAP
80
80
ENDCHAR
STARTCHAR afii10021
ENCODING 196
SWIDTH 1 0
DWIDTH 1 0
BBX 1 2 0 0
BITMAP
80
80
ENDCHAR
STARTCHAR afii10022
ENCODING 197
SWIDTH 1 0
DWIDTH 1 0
BBX 1 2 0 0
BITMAP
80
80
ENDCHAR
STARTCHAR afii10024
ENCODING 198
SWIDTH 1 0
DWIDTH 1 0
BBX 1 2 0 0
BITMAP
80
80
ENDCHAR
STARTCHAR afii10025
ENCODING 199
SWIDTH 1 0
DWIDTH 1 0
BBX 1 2 0 0
BITMAP
80
80
ENDCHAR
STARTCHAR afii10026
ENCODING 200
SWIDTH 1 0
DWIDTH 1 0
BBX 1 2 0 0
BITMAP
80
80
ENDCHAR
STARTCHAR afii10027
ENCODING 201
SWIDTH 1 0
DWIDTH 1 0
BBX 1 2 0 0
BITMAP
80
80
ENDCHAR
STARTCHAR afii10028
ENCODING 202
SWIDTH 1 0
DWIDTH 1 0
BBX 1 2 0 0
BITMAP
80
80
ENDCHAR
STARTCHAR afii10029
ENCODING 203
SWIDTH 1 0
DWIDTH 1 0
BBX 1 2 0 0
BITMAP
80
80
ENDCHAR
STARTCHAR afii10030
ENCODING 204
SWIDTH 1 0
DWIDTH 1 0
BBX 1 2 0 0
BITMAP
80
80
ENDCHAR
STARTCHAR afii10031
ENCODING 205
SWIDTH 1 0
DWIDTH 1 0
BBX 1 2 0 0
BITMAP
80
80
ENDCHAR
STARTCHAR afii10032
ENCODING 206
SWIDTH 1 0
DWIDTH 1 0
BBX 1 2 0 0
BITMAP
80
80
ENDCHAR
STARTCHAR afii10033
ENCODING 207
SWIDTH 1 0
DWIDTH 1 0
BBX 1 2 0 0
BITMAP
80
80
ENDCHAR
STARTCHAR afii10034
ENCODING 208
SWIDTH 1 0
DWIDTH 1 0
BBX 1 2 0 0
BITMAP
80
80
ENDCHAR
STARTCHAR afii10035
ENCODING 209
SWIDTH 1 0
DWIDTH 1 0
BBX 1 2 0 0
BITMAP
80
80
ENDCHAR
STARTCHAR afii10036
ENCODING 210
SWIDTH 1 0
DWIDTH 1 0
BBX 1 2 0 0
BITMAP
80
80
ENDCHAR
STARTCHAR afii10037
ENCODING 211
SWIDTH 1 0
DWIDTH 1 0
BBX 1 2 0 0
BITMAP
80
80
ENDCHAR
STARTCHAR afii10038
ENCODING 212
SWIDTH 1 0
DWIDTH 1 0
BBX 1 2 0 0
BITMAP
80
80
ENDCHAR
STARTCHAR afii10039
ENCODING 213
SWIDTH 1 0
DWIDTH 1 0
BBX 1 2 0 0
BITMAP
80
80
ENDCHAR
STARTCHAR afii10040
ENCODING 214
SWIDTH 1 0
DWIDTH 1 0
BBX 1 2 0 0
BITMAP
80
80
ENDCHAR
STARTCHAR afii10041
ENCODING 215
SWIDTH 1 0
DWIDTH 1 0
BBX 1 2 0 0
BITMAP
80
80
ENDCHAR
STARTCHAR afii10042
ENCODING 216
SWIDTH 1 0
DWIDTH 1 0
BBX 1 2 0 0
BITMAP
80
80
ENDCHAR
STARTCHAR afii10043
ENCODING 217
SWIDTH 1 0
DWIDTH 1 0
BBX 1 2 0 0
BITMAP
80
80
ENDCHAR
STARTCHAR afii10044
ENCODING 218
SWIDTH 1 0
DWIDTH 1 0
BBX 1 2 0 0
BITMAP
80
80
ENDCHAR
STARTCHAR afii10045
ENCODING 219
SWIDTH 1 0
DWIDTH 1 0
BBX 1 2 0 0
BITMAP
80
80
ENDCHAR
STARTCHAR afii10046
ENCODING 220
SWIDTH 1 0
DWIDTH 1 0
BBX 1 2 0 0
BITMAP
80
80
ENDCHAR
STARTCHAR afii10047
ENCODING 221
SWIDTH 1 0
DWIDTH 1 0
BBX 1 2 0 0
BITMAP
80
80
ENDCHAR
STARTCHAR afii10048
ENCODING 222
SWIDTH 1 0
DWIDTH 1 0
BBX 1 2 0 0
BITMAP
80
80
ENDCHAR
STARTCHAR afii10049
ENCODING 223
SWIDTH 1 0
DWIDTH 1 0
BBX 1 2 0 0
BITMAP
80
80
ENDCHAR
STARTCHAR afii10065
ENCODING 224
SWIDTH 1 0
DWIDTH 1 0
BBX 1 2 0 0
BITMAP
00
80
ENDCHAR
STARTCHAR afii10066
ENCODING 225
SWIDTH 1 0
DWIDTH 1 0
BBX 1 2 0 0
BITMAP
00
80
ENDCHAR
STARTCHAR afii10067
ENCODING 226
SWIDTH 1 0
DWIDTH 1 0
BBX 1 2 0 0
BITMAP
00
80
ENDCHAR
STARTCHAR afii10068
ENCODING 227
SWIDTH 1 0
DWIDTH 1 0
BBX 1 2 0 0
BITMAP
00
80
ENDCHAR
STARTCHAR afii10069
ENCODING 228
SWIDTH 1 0
DWIDTH 1 0
BBX 1 2 0 0
BITMAP
00
80
ENDCHAR
STARTCHAR afii10070
ENCODING 229
SWIDTH 1 0
DWIDTH 1 0
BBX 1 2 0 0
BITMAP
00
80
ENDCHAR
STARTCHAR afii10072
ENCODING 230
SWIDTH 1 0
DWIDTH 1 0
BBX 1 2 0 0
BITMAP
00
80
ENDCHAR
STARTCHAR afii10073
ENCODING 231
SWIDTH 1 0
DWIDTH 1 0
BBX 1 2 0 0
BITMAP
00
80
ENDCHAR
STARTCHAR afii10074
ENCODING 232
SWIDTH 1 0
DWIDTH 1 0
BBX 1 2 0 0
BITMAP
00
80
ENDCHAR
STARTCHAR afii10075
ENCODING 233
SWIDTH 1 0
DWIDTH 1 0
BBX 1 2 0 0
BITMAP
00
80
ENDCHAR
STARTCHAR afii10076
ENCODING 234
SWIDTH 1 0
DWIDTH 1 0
BBX 1 2 0 0
BITMAP
00
80
ENDCHAR
STARTCHAR afii10077
ENCODING 235
SWIDTH 1 0
DWIDTH 1 0
BBX 1 2 0 0
BITMAP
00
80
ENDCHAR
STARTCHAR afii10078
ENCODING 236
SWIDTH 1 0
DWIDTH 1 0
BBX 1 2 0 0
BITMAP
00
80
ENDCHAR
STARTCHAR afii10079
ENCODING 237
SWIDTH 1 0
DWIDTH 1 0
BBX 1 2 0 0
BITMAP
00
80
ENDCHAR
STARTCHAR afii10080
ENCODING 238
SWIDTH 1 0
DWIDTH 1 0
BBX 1 2 0 0
BITMAP
00
80
ENDCHAR
STARTCHAR afii10081
ENCODING 239
SWIDTH 1 0
DWIDTH 1 0
BBX 1 2 0 0
BITMAP
00
80
ENDCHAR
STARTCHAR afii10082
ENCODING 240
SWIDTH 1 0
DWIDTH 1 0
BBX 1 2 0 0
BITMAP
00
80
ENDCHAR
STARTCHAR afii10083
ENCODING 241
SWIDTH 1 0
DWIDTH 1 0
BBX 1 2 0 0
BITMAP
00
80
ENDCHAR
STARTCHAR afii10084
ENCODING 242
SWIDTH 1 0
DWIDTH 1 0
BBX 1 2 0 0
BITMAP
00
80
ENDCHAR
STARTCHAR afii10085
ENCODING 243
SWIDTH 1 0
DWIDTH 1 0
BBX 1 2 0 0
BITMAP
00
80
ENDCHAR
STARTCHAR afii10086
ENCODING 244
SWIDTH 1 0
DWIDTH 1 0
BBX 1 2 0 0
BITMAP
00
80
ENDCHAR
STARTCHAR afii10087
ENCODING 245
SWIDTH 1 0
DWIDTH 1 0
BBX 1 2 0 0
BITMAP
00
80
ENDCHAR
STARTCHAR afii10088
ENCODING 246
SWIDTH 1 0
DWIDTH 1 0
BBX 1 2 0 0
BITMAP
00
80
ENDCHAR
STARTCHAR afii10089
ENCODING 247
SWIDTH 1 0
DWIDTH 1 0
BBX 1 2 0 0
BITMAP
00
80
ENDCHAR
STARTCHAR afii10090
ENCODING 248
SWIDTH 1 0
DWIDTH 1 0
BBX 1 2 0 0
BITMAP
00
80
ENDCHAR
STARTCHAR afii10091
ENCODING 249
SWIDTH 1 0
DWIDTH 1 0
BBX 1 2 0 0
BITMAP
00
80
ENDCHAR
STARTCHAR afii10092
ENCODING 250
SWIDTH 1 0
DWIDTH 1 0
BBX 1 2 0 0
BITMAP
00
80
ENDCHAR
STARTCHAR afii10093
ENCODING 251
SWIDTH 1 0
DWIDTH 1 0
BBX 1 2 0 0
BITMAP
00
80
ENDCHAR
STARTCHAR afii10094
ENCODING 252
SWIDTH 1 0
DWIDTH 1 0
BBX 1 2 0 0
BITMAP
00
80
ENDCHAR
STARTCHAR afii10095
ENCODING 253
SWIDTH 1 0
DWIDTH 1 0
BBX 1 2 0 0
BITMAP
00
80
ENDCHAR
STARTCHAR afii10096
ENCODING 254
SWIDTH 1 0
DWIDTH 1 0
BBX 1 2 0 0
BITMAP
00
80
ENDCHAR
STARTCHAR afii10097
ENCODING 255
SWIDTH 1 0
DWIDTH 1 0
BBX 1 2 0 0
BITMAP
00
80
ENDCHAR
STARTCHAR tilde
ENCODING -1
SWIDTH 1 0
DWIDTH 1 0
BBX 1 2 0 0
BITMAP
80
00
ENDCHAR
STARTCHAR florin
ENCODING -1
SWIDTH 1 0
DWIDTH 1 0
BBX 1 2 0 0
BITMAP
80
80
ENDCHAR
STARTCHAR circumflex
ENCODING -1
SWIDTH 1 0
DWIDTH 1 0
BBX 1 2 0 0
BITMAP
80
00
ENDCHAR
STARTCHAR OE
ENCODING -1
SWIDTH 1 0
DWIDTH 1 0
BBX 1 2 0 0
BITMAP
80
80
ENDCHAR
STARTCHAR oe
ENCODING -1
SWIDTH 1 0
DWIDTH 1 0
BBX 1 2 0 0
BITMAP
00
80
ENDCHAR
STARTCHAR Scaron
ENCODING -1
SWIDTH 1 0
DWIDTH 1 0
BBX 1 2 0 0
BITMAP
80
80
ENDCHAR
STARTCHAR scaron
ENCODING -1
SWIDTH 1 0
DWIDTH 1 0
BBX 1 2 0 0
BITMAP
00
80
ENDCHAR
STARTCHAR Zcaron
ENCODING -1
SWIDTH 1 0
DWIDTH 1 0
BBX 1 2 0 0
BITMAP
80
80
ENDCHAR
STARTCHAR zcaron
ENCODING -1
SWIDTH 1 0
DWIDTH 1 0
BBX 1 2 0 0
BITMAP
00
80
ENDCHAR
STARTCHAR Ydieresis
ENCODING -1
SWIDTH 1 0
DWIDTH 1 0
BBX 1 2 0 0
BITMAP
80
80
ENDCHAR
ENDFONT
